<mxfile host="app.diagrams.net" modified="2021-05-18T15:17:27.185Z" agent="5.0 (Windows NT 10.0; WOW64) AppleWebKit/537.36 (KHTML, like Gecko) Chrome/90.0.4430.212 Safari/537.36" etag="1E-LEje0EHSXeg7CUt_c" version="14.6.13" type="github">
  <diagram id="dfmJ5PRtE6S-TQssG3T2" name="Page-1">
    <mxGraphModel dx="1872" dy="1537" grid="1" gridSize="10" guides="1" tooltips="1" connect="1" arrows="1" fold="1" page="1" pageScale="1" pageWidth="850" pageHeight="1100" math="0" shadow="0">
      <root>
        <mxCell id="0" />
        <mxCell id="1" parent="0" />
        <mxCell id="hfEJXq4P2hzBnoVsS2LQ-3" value="" style="shape=document;whiteSpace=wrap;html=1;boundedLbl=1;" vertex="1" parent="1">
          <mxGeometry x="511.5" y="-48" width="56.5" height="40" as="geometry" />
        </mxCell>
        <mxCell id="cN4oM8W2iNpLodC8hFLX-30" value="" style="rounded=1;whiteSpace=wrap;html=1;" parent="1" vertex="1">
          <mxGeometry x="127" y="10" width="540" height="445" as="geometry" />
        </mxCell>
        <mxCell id="cN4oM8W2iNpLodC8hFLX-26" value="" style="rounded=0;whiteSpace=wrap;html=1;" parent="1" vertex="1">
          <mxGeometry x="427" y="80" width="220" height="340" as="geometry" />
        </mxCell>
        <mxCell id="cN4oM8W2iNpLodC8hFLX-11" value="" style="rounded=0;whiteSpace=wrap;html=1;" parent="1" vertex="1">
          <mxGeometry x="166" y="80" width="220" height="340" as="geometry" />
        </mxCell>
        <mxCell id="cN4oM8W2iNpLodC8hFLX-1" value="" style="aspect=fixed;pointerEvents=1;shadow=0;dashed=0;html=1;strokeColor=none;labelPosition=center;verticalLabelPosition=bottom;verticalAlign=top;align=center;fillColor=#00188D;shape=mxgraph.mscae.enterprise.server_generic" parent="1" vertex="1">
          <mxGeometry x="308" y="238" width="24" height="50" as="geometry" />
        </mxCell>
        <mxCell id="cN4oM8W2iNpLodC8hFLX-28" value="" style="edgeStyle=orthogonalEdgeStyle;rounded=0;orthogonalLoop=1;jettySize=auto;html=1;entryX=0.571;entryY=0.002;entryDx=0;entryDy=0;entryPerimeter=0;" parent="1" source="cN4oM8W2iNpLodC8hFLX-2" target="cN4oM8W2iNpLodC8hFLX-11" edge="1">
          <mxGeometry relative="1" as="geometry">
            <mxPoint x="305.2599999999999" y="-5" as="targetPoint" />
            <Array as="points">
              <mxPoint x="292" y="10" />
            </Array>
          </mxGeometry>
        </mxCell>
        <mxCell id="cN4oM8W2iNpLodC8hFLX-29" style="edgeStyle=orthogonalEdgeStyle;rounded=0;orthogonalLoop=1;jettySize=auto;html=1;entryX=0.5;entryY=0;entryDx=0;entryDy=0;" parent="1" source="cN4oM8W2iNpLodC8hFLX-2" target="cN4oM8W2iNpLodC8hFLX-26" edge="1">
          <mxGeometry relative="1" as="geometry">
            <mxPoint x="467" y="-5" as="targetPoint" />
            <Array as="points">
              <mxPoint x="537" y="10" />
            </Array>
          </mxGeometry>
        </mxCell>
        <mxCell id="cN4oM8W2iNpLodC8hFLX-2" value="" style="verticalLabelPosition=bottom;html=1;verticalAlign=top;strokeWidth=1;align=center;outlineConnect=0;dashed=0;outlineConnect=0;shape=mxgraph.aws3d.elasticLoadBalancing;fillColor=#ECECEC;strokeColor=#5E5E5E;aspect=fixed;" parent="1" vertex="1">
          <mxGeometry x="385.26" y="-30" width="52.18" height="50" as="geometry" />
        </mxCell>
        <mxCell id="cN4oM8W2iNpLodC8hFLX-3" value="" style="aspect=fixed;pointerEvents=1;shadow=0;dashed=0;html=1;strokeColor=none;labelPosition=center;verticalLabelPosition=bottom;verticalAlign=top;align=center;fillColor=#00188D;shape=mxgraph.mscae.enterprise.application_server" parent="1" vertex="1">
          <mxGeometry x="208" y="238" width="43" height="50" as="geometry" />
        </mxCell>
        <mxCell id="cN4oM8W2iNpLodC8hFLX-8" value="" style="outlineConnect=0;fontColor=#232F3E;gradientColor=none;fillColor=#3334B9;strokeColor=none;dashed=0;verticalLabelPosition=bottom;verticalAlign=top;align=center;html=1;fontSize=12;fontStyle=0;aspect=fixed;pointerEvents=1;shape=mxgraph.aws4.rds_sql_server_instance;" parent="1" vertex="1">
          <mxGeometry x="205" y="358" width="48" height="48" as="geometry" />
        </mxCell>
        <mxCell id="cN4oM8W2iNpLodC8hFLX-14" value="" style="edgeStyle=orthogonalEdgeStyle;rounded=0;orthogonalLoop=1;jettySize=auto;html=1;" parent="1" source="cN4oM8W2iNpLodC8hFLX-9" target="cN4oM8W2iNpLodC8hFLX-3" edge="1">
          <mxGeometry relative="1" as="geometry">
            <Array as="points">
              <mxPoint x="287" y="210" />
              <mxPoint x="230" y="210" />
            </Array>
          </mxGeometry>
        </mxCell>
        <mxCell id="cN4oM8W2iNpLodC8hFLX-9" value="" style="aspect=fixed;perimeter=ellipsePerimeter;html=1;align=center;shadow=0;dashed=0;spacingTop=3;image;image=img/lib/active_directory/web_server.svg;" parent="1" vertex="1">
          <mxGeometry x="267" y="148" width="40" height="50" as="geometry" />
        </mxCell>
        <mxCell id="cN4oM8W2iNpLodC8hFLX-19" value="" style="aspect=fixed;pointerEvents=1;shadow=0;dashed=0;html=1;strokeColor=none;labelPosition=center;verticalLabelPosition=bottom;verticalAlign=top;align=center;fillColor=#00188D;shape=mxgraph.mscae.enterprise.server_generic" parent="1" vertex="1">
          <mxGeometry x="592" y="235" width="24" height="50" as="geometry" />
        </mxCell>
        <mxCell id="cN4oM8W2iNpLodC8hFLX-22" value="" style="aspect=fixed;pointerEvents=1;shadow=0;dashed=0;html=1;strokeColor=none;labelPosition=center;verticalLabelPosition=bottom;verticalAlign=top;align=center;fillColor=#00188D;shape=mxgraph.mscae.enterprise.application_server" parent="1" vertex="1">
          <mxGeometry x="492" y="235" width="43" height="50" as="geometry" />
        </mxCell>
        <mxCell id="cN4oM8W2iNpLodC8hFLX-23" value="" style="outlineConnect=0;fontColor=#232F3E;gradientColor=none;fillColor=#3334B9;strokeColor=none;dashed=0;verticalLabelPosition=bottom;verticalAlign=top;align=center;html=1;fontSize=12;fontStyle=0;aspect=fixed;pointerEvents=1;shape=mxgraph.aws4.rds_sql_server_instance;" parent="1" vertex="1">
          <mxGeometry x="489" y="355" width="48" height="48" as="geometry" />
        </mxCell>
        <mxCell id="cN4oM8W2iNpLodC8hFLX-24" value="" style="edgeStyle=orthogonalEdgeStyle;rounded=0;orthogonalLoop=1;jettySize=auto;html=1;" parent="1" source="cN4oM8W2iNpLodC8hFLX-25" target="cN4oM8W2iNpLodC8hFLX-22" edge="1">
          <mxGeometry relative="1" as="geometry" />
        </mxCell>
        <mxCell id="cN4oM8W2iNpLodC8hFLX-25" value="" style="aspect=fixed;perimeter=ellipsePerimeter;html=1;align=center;shadow=0;dashed=0;spacingTop=3;image;image=img/lib/active_directory/web_server.svg;" parent="1" vertex="1">
          <mxGeometry x="523" y="145" width="40" height="50" as="geometry" />
        </mxCell>
        <mxCell id="cN4oM8W2iNpLodC8hFLX-33" value="" style="endArrow=classic;startArrow=classic;html=1;" parent="1" edge="1">
          <mxGeometry width="50" height="50" relative="1" as="geometry">
            <mxPoint x="291" y="148" as="sourcePoint" />
            <mxPoint x="291" y="80" as="targetPoint" />
          </mxGeometry>
        </mxCell>
        <mxCell id="cN4oM8W2iNpLodC8hFLX-34" value="" style="endArrow=classic;startArrow=classic;html=1;" parent="1" edge="1">
          <mxGeometry width="50" height="50" relative="1" as="geometry">
            <mxPoint x="537.5" y="146" as="sourcePoint" />
            <mxPoint x="537.5" y="78" as="targetPoint" />
          </mxGeometry>
        </mxCell>
        <mxCell id="cN4oM8W2iNpLodC8hFLX-37" value="" style="endArrow=classic;startArrow=classic;html=1;" parent="1" edge="1">
          <mxGeometry width="50" height="50" relative="1" as="geometry">
            <mxPoint x="240" y="260" as="sourcePoint" />
            <mxPoint x="307" y="260" as="targetPoint" />
          </mxGeometry>
        </mxCell>
        <mxCell id="cN4oM8W2iNpLodC8hFLX-38" value="" style="endArrow=classic;startArrow=classic;html=1;" parent="1" edge="1">
          <mxGeometry width="50" height="50" relative="1" as="geometry">
            <mxPoint x="525" y="259.5" as="sourcePoint" />
            <mxPoint x="592" y="259.5" as="targetPoint" />
          </mxGeometry>
        </mxCell>
        <mxCell id="cN4oM8W2iNpLodC8hFLX-39" value="" style="endArrow=classic;startArrow=classic;html=1;" parent="1" edge="1">
          <mxGeometry width="50" height="50" relative="1" as="geometry">
            <mxPoint x="234.3478260869565" y="358" as="sourcePoint" />
            <mxPoint x="234" y="290" as="targetPoint" />
          </mxGeometry>
        </mxCell>
        <mxCell id="cN4oM8W2iNpLodC8hFLX-40" value="" style="endArrow=classic;startArrow=classic;html=1;" parent="1" edge="1">
          <mxGeometry width="50" height="50" relative="1" as="geometry">
            <mxPoint x="513.3478260869565" y="356" as="sourcePoint" />
            <mxPoint x="513" y="288" as="targetPoint" />
          </mxGeometry>
        </mxCell>
        <mxCell id="cN4oM8W2iNpLodC8hFLX-44" style="edgeStyle=orthogonalEdgeStyle;rounded=0;orthogonalLoop=1;jettySize=auto;html=1;" parent="1" source="cN4oM8W2iNpLodC8hFLX-42" target="cN4oM8W2iNpLodC8hFLX-2" edge="1">
          <mxGeometry relative="1" as="geometry" />
        </mxCell>
        <mxCell id="cN4oM8W2iNpLodC8hFLX-42" value="Public access" style="shape=umlActor;verticalLabelPosition=bottom;verticalAlign=top;html=1;outlineConnect=0;" parent="1" vertex="1">
          <mxGeometry x="136" y="-90" width="14" height="20" as="geometry" />
        </mxCell>
        <mxCell id="cN4oM8W2iNpLodC8hFLX-45" style="edgeStyle=orthogonalEdgeStyle;rounded=0;orthogonalLoop=1;jettySize=auto;html=1;entryX=0.474;entryY=0;entryDx=0;entryDy=0;entryPerimeter=0;" parent="1" edge="1">
          <mxGeometry relative="1" as="geometry">
            <mxPoint x="595" y="-100" as="sourcePoint" />
            <mxPoint x="414.99332000000004" y="-30" as="targetPoint" />
          </mxGeometry>
        </mxCell>
        <mxCell id="cN4oM8W2iNpLodC8hFLX-43" value="Public access" style="shape=umlActor;verticalLabelPosition=bottom;verticalAlign=top;html=1;outlineConnect=0;" parent="1" vertex="1">
          <mxGeometry x="590" y="-110" width="14" height="20" as="geometry" />
        </mxCell>
        <mxCell id="cN4oM8W2iNpLodC8hFLX-51" value="On internet&lt;br&gt;www.camsfinserv.com" style="ellipse;shape=cloud;whiteSpace=wrap;html=1;" parent="1" vertex="1">
          <mxGeometry x="360" y="-130" width="120" height="80" as="geometry" />
        </mxCell>
        <mxCell id="cN4oM8W2iNpLodC8hFLX-59" style="edgeStyle=orthogonalEdgeStyle;rounded=0;orthogonalLoop=1;jettySize=auto;html=1;" parent="1" source="cN4oM8W2iNpLodC8hFLX-53" edge="1">
          <mxGeometry relative="1" as="geometry">
            <mxPoint x="270" y="170" as="targetPoint" />
          </mxGeometry>
        </mxCell>
        <mxCell id="cN4oM8W2iNpLodC8hFLX-53" value="Frontend application&lt;br&gt;in NGINX" style="text;html=1;strokeColor=none;fillColor=none;align=center;verticalAlign=middle;whiteSpace=wrap;rounded=0;" parent="1" vertex="1">
          <mxGeometry x="-10" y="160" width="128" height="20" as="geometry" />
        </mxCell>
        <mxCell id="cN4oM8W2iNpLodC8hFLX-56" style="edgeStyle=orthogonalEdgeStyle;rounded=0;orthogonalLoop=1;jettySize=auto;html=1;" parent="1" source="cN4oM8W2iNpLodC8hFLX-55" target="cN4oM8W2iNpLodC8hFLX-3" edge="1">
          <mxGeometry relative="1" as="geometry" />
        </mxCell>
        <mxCell id="cN4oM8W2iNpLodC8hFLX-55" value="Backend application&lt;br&gt;in IIS" style="text;html=1;strokeColor=none;fillColor=none;align=center;verticalAlign=middle;whiteSpace=wrap;rounded=0;" parent="1" vertex="1">
          <mxGeometry x="-10" y="253" width="128" height="20" as="geometry" />
        </mxCell>
        <mxCell id="cN4oM8W2iNpLodC8hFLX-61" style="edgeStyle=orthogonalEdgeStyle;rounded=0;orthogonalLoop=1;jettySize=auto;html=1;entryX=0.5;entryY=1;entryDx=0;entryDy=0;entryPerimeter=0;" parent="1" source="cN4oM8W2iNpLodC8hFLX-60" target="cN4oM8W2iNpLodC8hFLX-1" edge="1">
          <mxGeometry relative="1" as="geometry" />
        </mxCell>
        <mxCell id="cN4oM8W2iNpLodC8hFLX-60" value="Signature application&amp;nbsp; - Java" style="text;html=1;strokeColor=none;fillColor=none;align=center;verticalAlign=middle;whiteSpace=wrap;rounded=0;" parent="1" vertex="1">
          <mxGeometry x="-11" y="321" width="128" height="20" as="geometry" />
        </mxCell>
        <mxCell id="cN4oM8W2iNpLodC8hFLX-64" style="edgeStyle=orthogonalEdgeStyle;rounded=0;orthogonalLoop=1;jettySize=auto;html=1;" parent="1" source="cN4oM8W2iNpLodC8hFLX-62" target="cN4oM8W2iNpLodC8hFLX-8" edge="1">
          <mxGeometry relative="1" as="geometry" />
        </mxCell>
        <mxCell id="cN4oM8W2iNpLodC8hFLX-62" value="Database server" style="text;html=1;strokeColor=none;fillColor=none;align=center;verticalAlign=middle;whiteSpace=wrap;rounded=0;" parent="1" vertex="1">
          <mxGeometry x="-10" y="372" width="128" height="20" as="geometry" />
        </mxCell>
        <mxCell id="cN4oM8W2iNpLodC8hFLX-65" value="CAMS IP" style="whiteSpace=wrap;html=1;shape=mxgraph.basic.cloud_rect" parent="1" vertex="1">
          <mxGeometry x="353" y="600" width="120" height="30" as="geometry" />
        </mxCell>
        <mxCell id="cN4oM8W2iNpLodC8hFLX-67" value="AWS Direct Connect" style="text;html=1;strokeColor=none;fillColor=none;align=center;verticalAlign=middle;whiteSpace=wrap;rounded=0;" parent="1" vertex="1">
          <mxGeometry x="267.44" y="520" width="170" height="20" as="geometry" />
        </mxCell>
        <mxCell id="cN4oM8W2iNpLodC8hFLX-68" value="" style="endArrow=classic;startArrow=classic;html=1;" parent="1" edge="1">
          <mxGeometry width="50" height="50" relative="1" as="geometry">
            <mxPoint x="413" y="600" as="sourcePoint" />
            <mxPoint x="413" y="455" as="targetPoint" />
          </mxGeometry>
        </mxCell>
        <mxCell id="cN4oM8W2iNpLodC8hFLX-69" value="" style="endArrow=classic;html=1;" parent="1" edge="1">
          <mxGeometry width="50" height="50" relative="1" as="geometry">
            <mxPoint x="650" y="257.5" as="sourcePoint" />
            <mxPoint x="720" y="258" as="targetPoint" />
          </mxGeometry>
        </mxCell>
        <mxCell id="cN4oM8W2iNpLodC8hFLX-70" value="Loan balancing zone" style="text;html=1;strokeColor=none;fillColor=none;align=center;verticalAlign=middle;whiteSpace=wrap;rounded=0;" parent="1" vertex="1">
          <mxGeometry x="700" y="250" width="170" height="20" as="geometry" />
        </mxCell>
        <mxCell id="hfEJXq4P2hzBnoVsS2LQ-1" value="" style="endArrow=classic;startArrow=classic;html=1;" edge="1" parent="1">
          <mxGeometry width="50" height="50" relative="1" as="geometry">
            <mxPoint x="420" y="-30" as="sourcePoint" />
            <mxPoint x="510" y="-30" as="targetPoint" />
          </mxGeometry>
        </mxCell>
        <mxCell id="hfEJXq4P2hzBnoVsS2LQ-2" value="WAF" style="text;html=1;strokeColor=none;fillColor=none;align=center;verticalAlign=middle;whiteSpace=wrap;rounded=0;" vertex="1" parent="1">
          <mxGeometry x="517" y="-40" width="40" height="20" as="geometry" />
        </mxCell>
      </root>
    </mxGraphModel>
  </diagram>
</mxfile>
